<svg xmlns="http://www.w3.org/2000/svg" xmlns:xlink="http://www.w3.org/1999/xlink" version="1.1" id="Layer_1" x="0px" y="0px" width="90px" height="90px" viewBox="0 0 90 90" enable-background="new 0 0 90 90" xml:space="preserve">
<path fill="#ffffff" d="M53.243,52.164v3.531c0,0.539-0.438,0.979-0.979,0.979H37.735c-0.54,0-0.979-0.44-0.979-0.979v-3.531  c-12.804-0.554-25.102-2.375-36.293-5.375v31.023c0,1.607,1.305,2.912,2.913,2.912h83.246c1.608,0,2.913-1.305,2.913-2.912V46.789  C78.346,49.789,66.048,51.61,53.243,52.164z"/>
<path fill="#ffffff" d="M86.623,22.208H3.377c-1.608,0-2.913,1.305-2.913,2.913v17.435c10.933,3.002,23.23,4.915,36.293,5.494v-3.215  c0-0.54,0.438-0.979,0.979-0.979h14.529c0.54,0,0.979,0.439,0.979,0.979v3.215c13.063-0.579,25.361-2.492,36.293-5.494V25.121  C89.536,23.513,88.231,22.208,86.623,22.208z"/>
<path fill="#ffffff" d="M50.598,53.764c0,0.348-0.299,0.633-0.665,0.633h-9.864c-0.368,0-0.665-0.285-0.665-0.633v-6.998  c0-0.349,0.297-0.632,0.665-0.632h9.864c0.366,0,0.665,0.283,0.665,0.632V53.764z"/>
<path fill="#ffffff" d="M57.671,17.803v-4.029c0-2.48-2.018-4.498-4.498-4.498H36.73c-2.479,0-4.497,2.018-4.497,4.498v3.997h-0.905v2.216h0.905  v0.032h4.624v-0.032h1.085v-2.216h-1.085V13.9h16.188v3.902h-0.988v2.216h0.988h4.625h1.001v-2.216H57.671z"/>
</svg>