<svg xmlns="http://www.w3.org/2000/svg" xmlns:xlink="http://www.w3.org/1999/xlink" version="1.1" id="Your_Icon" x="0px" y="0px" width="100px" height="100px" viewBox="0 0 100 100" enable-background="new 0 0 100 100" xml:space="preserve">
<path fill="#ffffff" d="M67.136,55.302c0,7.982,6.931,14.475,15.448,14.475c8.516,0,15.444-6.492,15.444-14.475l-1.197-1.199L84.561,29.554  c0.454-0.369,0.848-0.806,1.102-1.335c0.31-0.518,0.394-0.979,0.362-1.37c0.009-0.112,0.013-0.228,0.012-0.346  c-0.021-2.132-1.771-3.867-3.951-3.867c-1.042,0.012-2.02,0.429-2.748,1.175c-0.254,0.26-0.466,0.548-0.638,0.857  c-0.127-0.119-0.255-0.235-0.378-0.35L78.194,24.2c-0.983-0.905-1.844-1.745-2.633-2.515c-3.321-3.238-5.721-5.579-10.524-6.216  c-0.646-0.086-1.298-0.13-1.936-0.13c-2.925,0-5.155,0.887-6.945,1.601c-0.954,0.38-1.777,0.708-2.38,0.758  c-0.377,0.032-0.715,0.06-1.016,0.083c-0.032-0.062-0.066-0.122-0.103-0.181c0.163-0.561,0.201-1.226,0.023-1.972  c-0.205-0.832-0.88-4.464-1.122-5.793l-3.933,0.04c-0.215,1.33-0.812,4.962-1,5.815c-0.159,0.745-0.103,1.409,0.074,1.97  c-0.036,0.062-0.07,0.125-0.103,0.189c-0.301-0.017-0.638-0.037-1.015-0.062c-0.602-0.036-1.436-0.346-2.401-0.706  c-1.731-0.645-3.886-1.447-6.653-1.447c-0.744,0-1.501,0.06-2.252,0.177c-4.786,0.747-7.13,3.137-10.376,6.444  c-0.772,0.788-1.618,1.649-2.586,2.581c-0.176,0.171-0.343,0.33-0.501,0.479c-0.683-1.167-1.957-1.956-3.426-1.956  c-1.042,0.012-2.018,0.431-2.747,1.179c-0.73,0.747-1.124,1.732-1.112,2.774c0.001,0.111,0.007,0.22,0.017,0.329  c-0.025,0.395,0.068,0.861,0.396,1.377c0.256,0.517,0.656,0.942,1.114,1.3L3.161,54.111l-1.189,1.19  c0,7.982,6.927,14.475,15.444,14.475c8.519,0,15.45-6.492,15.45-14.475l-1.191-1.191l-11.49-22.972  c2.287-0.728,4.598-2.527,6.849-4.292c0.712-0.558,1.402-1.1,2.05-1.568c1.93-1.394,2.972-1.581,3.737-1.581  c1.014,0,2.148,0.38,3.886,1.083c2.913,1.175,5.349,1.35,6.542,1.35c0.42,0,0.72-0.02,0.879-0.035l2.063-0.022  c-0.267,0.451-0.478,1.028-0.596,1.764c-0.427,0.472-0.567,0.979-0.613,1.245c-0.132,0.783,0.125,1.438,0.44,1.917l0.273,24.387  c-0.753,0.731-0.887,1.539-0.888,2.013c-0.001,0.506,0.141,0.97,0.366,1.38l-0.251,0.742c-0.008,0.087-0.826,9.17-1.347,13.251  C43.126,76.218,43.308,79,43.62,80H20.277l-1.834,0.714l-3.065,6.835L17.212,90h66.829L85,90.12v0.043l1.342-2.779l-3.295-6.668  L80.979,80H57.081c0.293-3,0.464-3.834-0.072-7.379c-0.622-4.07-1.622-12.881-1.632-12.967l-0.271-0.865  c0.218-0.414,0.347-0.943,0.335-1.45c-0.013-0.474-0.166-1.305-0.932-2.019l-0.275-24.406c0.304-0.484,0.544-1.15,0.397-1.927  c-0.053-0.267-0.202-0.774-0.64-1.237c-0.136-0.734-0.36-1.31-0.64-1.755l2.066-0.024c0.654,0.047,3.661,0.12,7.396-1.482  c1.762-0.76,2.913-1.172,3.943-1.172c0.746,0,1.766,0.178,3.685,1.498c0.664,0.458,1.371,0.988,2.102,1.534  c2.484,1.858,5.038,3.758,7.526,4.278L68.326,54.11L67.136,55.302z M91.973,54H73.189l9.395-18.785L91.973,54z M17.416,35.214  L26.811,54H8.023L17.416,35.214z"/>
</svg>