<?xml version="1.0" encoding="utf-8"?>
<!-- Generator: Adobe Illustrator 18.0.0, SVG Export Plug-In . SVG Version: 6.00 Build 0)  -->
<svg version="1.1" id="Layer_1" xmlns="http://www.w3.org/2000/svg" xmlns:xlink="http://www.w3.org/1999/xlink" x="0px" y="0px"
	 viewBox="0 0 258 543" enable-background="new 0 0 258 543" xml:space="preserve">
<path fill="#E8E8E8" d="M130.8,484.6c-11,0-19.9,8.9-19.9,19.9c0,11,8.9,19.9,19.9,19.9c11,0,19.9-8.9,19.9-19.9
	C150.7,493.5,141.8,484.6,130.8,484.6z"/>
<path fill="#E8E8E8" d="M130.8,484.6c-11,0-19.9,8.9-19.9,19.9c0,11,8.9,19.9,19.9,19.9c11,0,19.9-8.9,19.9-19.9
	C150.7,493.5,141.8,484.6,130.8,484.6z"/>
<path fill="#E8E8E8" d="M130.8,484.6c-11,0-19.9,8.9-19.9,19.9c0,11,8.9,19.9,19.9,19.9c11,0,19.9-8.9,19.9-19.9
	C150.7,493.5,141.8,484.6,130.8,484.6z"/>
<g>
	<path fill="#E8E8E8" d="M220.9,2H216V0h-42v2H40.6C19.9,2,3,18.9,3,39.6V77H0v25h3v25H0v20h3v25H0v20h3v313.7
		C3,526.4,19.9,543,40.6,543h180.4c20.7,0,37.1-16.6,37.1-37.3V39.6C258,18.9,241.6,2,220.9,2z M130.2,23.2c2.9,0,5.3,2.4,5.3,5.3
		c0,2.9-2.4,5.3-5.3,5.3c-2.9,0-5.3-2.4-5.3-5.3C124.9,25.5,127.3,23.2,130.2,23.2z M109,47.8c0-0.7,0-0.8,0.7-0.8h41
		c0.7,0,1.3,0.1,1.3,0.8v2.3c0,0.7-0.7,0.9-1.3,0.9h-41c-0.6,0-0.7-0.2-0.7-0.9V47.8z M94.5,45.4c1.9,0,3.5,1.6,3.5,3.5
		s-1.6,3.5-3.5,3.5s-3.5-1.6-3.5-3.5S92.5,45.4,94.5,45.4z M130.8,526.8c-12.3,0-22.2-10-22.2-22.3s10-22.2,22.2-22.2
		c12.3,0,22.2,10,22.2,22.2S143,526.8,130.8,526.8z M243,467c0,1.3-0.8,2-2.1,2H20.7c-1.3,0-2.7-0.7-2.7-2V79.4
		c0-1.3,1.4-2.4,2.7-2.4h220.2c1.3,0,2.1,1.1,2.1,2.4V467z"/>
</g>
</svg>
